<svg width="470" height="440.00000000000006" xmlns="http://www.w3.org/2000/svg">

 <g>
  <title>background</title>
  <rect fill="none" id="canvas_background" height="442" width="472" y="-1" x="-1"/>
 </g>
 <g>
  <title>Layer 1</title>
  <path id="svg_1" d="m238.555553,318.555897c-55.14014,0 -100,-44.85986 -100,-100s44.85986,-100 100,-100s100,44.85986 100,100s-44.85987,100 -100,100zm0,-180c-44.1123,0 -80,35.8877 -80,80s35.8877,80 80,80s80,-35.8877 80,-80s-35.8877,-80 -80,-80z" fill="#f5f5f5"/>
  <path id="svg_2" d="m238.457893,102.458237c-5.52295,0 -10,-4.47705 -10,-10l0,-54c0,-5.52295 4.47705,-10 10,-10s10,4.47705 10,10l0,54c0,5.52295 -4.47705,10 -10,10z" fill="#f5f5f5"/>
  <path id="svg_3" d="m238.457893,408.458237c-5.52295,0 -10,-4.47705 -10,-10l0,-54c0,-5.52295 4.47705,-10 10,-10s10,4.47705 10,10l0,54c0,5.52295 -4.47705,10 -10,10z" fill="#f5f5f5"/>
  <path id="svg_4" d="m112.457893,228.458237l-54,0c-5.52295,0 -10,-4.47705 -10,-10s4.47705,-10 10,-10l54,0c5.52295,0 10,4.47705 10,10s-4.47705,10 -10,10z" fill="#f5f5f5"/>
  <path id="svg_5" d="m418.457893,228.458237l-54,0c-5.52295,0 -10,-4.47705 -10,-10s4.47705,-10 10,-10l54,0c5.52295,0 10,4.47705 10,10s-4.47705,10 -10,10z" fill="#f5f5f5"/>
  <path id="svg_6" d="m326.999883,139.916247c-2.55908,0 -5.11865,-0.97607 -7.07129,-2.92871c-3.90479,-3.90527 -3.90479,-10.2373 0,-14.14258l38.7373,-38.7373c3.90527,-3.90527 10.2373,-3.90527 14.14258,0c3.90479,3.90527 3.90479,10.2373 0,14.14258l-38.7373,38.7373c-1.95264,1.95263 -4.51221,2.92871 -7.07129,2.92871z" fill="#f5f5f5"/>
  <path id="svg_7" d="m111.178593,355.737537c-2.55908,0 -5.11865,-0.97607 -7.07129,-2.92871c-3.90479,-3.90527 -3.90479,-10.2373 0,-14.14258l38.7373,-38.7373c3.90527,-3.90527 10.2373,-3.90527 14.14258,0c3.90479,3.90527 3.90479,10.2373 0,14.14258l-38.7373,38.7373c-1.95263,1.95263 -4.5122,2.92871 -7.07129,2.92871z" fill="#f5f5f5"/>
  <path id="svg_8" d="m149.915903,139.916247c-2.55908,0 -5.11865,-0.97607 -7.07129,-2.92871l-38.7373,-38.7373c-3.90479,-3.90527 -3.90479,-10.2373 0,-14.14258c3.90527,-3.90527 10.2373,-3.90527 14.14258,0l38.7373,38.7373c3.90479,3.90527 3.90479,10.2373 0,14.14258c-1.95264,1.95263 -4.51221,2.92871 -7.07129,2.92871z" fill="#f5f5f5"/>
  <path id="svg_9" d="m365.737193,355.737537c-2.55908,0 -5.11865,-0.97607 -7.07129,-2.92871l-38.7373,-38.7373c-3.90479,-3.90527 -3.90479,-10.2373 0,-14.14258c3.90527,-3.90527 10.2373,-3.90527 14.14258,0l38.7373,38.7373c3.90479,3.90527 3.90479,10.2373 0,14.14258c-1.95264,1.95263 -4.51221,2.92871 -7.07129,2.92871z" fill="#f5f5f5"/>
 </g>
</svg>