<svg width="470" height="440" xmlns="http://www.w3.org/2000/svg">

 <g>
  <title>background</title>
  <rect fill="none" id="canvas_background" height="442" width="472" y="-1" x="-1"/>
 </g>
 <g>
  <title>Layer 1</title>
  <path id="svg_71" d="m253.000001,330c-66.16797,0 -120,-53.83203 -120,-120s53.83203,-120 120,-120c3.20557,0 6.48975,0.13379 9.76074,0.39746c3.57715,0.28906 6.72461,2.47168 8.24902,5.71973s1.19141,7.06445 -0.87207,10c-11.86572,16.87598 -18.1377,36.73828 -18.1377,57.43848c0,25.29102 9.4624,49.42578 26.64453,67.95996c17.08984,18.43555 40.24609,29.69629 65.20215,31.70801c3.57617,0.28809 6.72461,2.4707 8.24902,5.71973c1.52441,3.24805 1.19141,7.06445 -0.87207,10c-22.4785,31.96971 -59.19725,51.05663 -98.22362,51.05663zm-8.59912,-219.63379c-51.12842,4.37695 -91.40088,47.3916 -91.40088,99.63379c0,55.14062 44.85986,100 100,100c26.89062,0 52.46777,-10.87598 71.1123,-29.70801c-22.93555,-5.45605 -43.83691,-17.59863 -60.13477,-35.17871c-20.62109,-22.24414 -31.97754,-51.20801 -31.97754,-81.55762c0.00001,-18.6582 4.24806,-36.75195 12.40089,-53.18945z" fill="#f5f5f5"/>
 </g>
</svg>