<svg width="470" height="439.99999999999994" xmlns="http://www.w3.org/2000/svg">

 <g>
  <title>background</title>
  <rect fill="none" id="canvas_background" height="442" width="472" y="-1" x="-1"/>
 </g>
 <g>
  <title>Layer 1</title>
  <path id="svg_10" d="m332.547835,276.648439c-2.9082,0 -5.79199,-1.2627 -7.76855,-3.69678c-3.48145,-4.28711 -2.82812,-10.58496 1.45898,-14.06641c18.81738,-15.28076 29.60938,-37.93018 29.60938,-62.13965c0,-44.1123 -35.8877,-80 -80,-80c-40.80322,0 -74.98096,30.52832 -79.50146,71.01123c-0.61279,5.48877 -5.55713,9.43896 -11.04785,8.8291c-5.48828,-0.61328 -9.44141,-5.55957 -8.82812,-11.04834c5.65186,-50.61963 48.37451,-88.79199 99.37744,-88.79199c55.14062,0 100,44.85986 100,100c0,30.26123 -13.48633,58.56934 -37.00195,77.66504c-1.85353,1.50538 -4.08302,2.2378 -6.29787,2.2378z" fill="#f5f5f5"/>
  <path id="svg_11" d="m275.749985,80.647949c-5.52246,0 -10,-4.47705 -10,-10l0,-54c0,-5.52295 4.47754,-10 10,-10s10,4.47705 10,10l0,54c0,5.52295 -4.47754,10 -10,10z" fill="#f5f5f5"/>
  <path id="svg_12" d="m149.749985,206.647949l-54,0c-5.52295,0 -10,-4.47705 -10,-10s4.47705,-10 10,-10l54,0c5.52295,0 10,4.47705 10,10s-4.47705,10 -10,10z" fill="#f5f5f5"/>
  <path id="svg_13" d="m455.749985,206.647949l-54,0c-5.52246,0 -10,-4.47705 -10,-10s4.47754,-10 10,-10l54,0c5.52246,0 10,4.47705 10,10s-4.47754,10 -10,10z" fill="#f5f5f5"/>
  <path id="svg_14" d="m364.291975,118.105959c-2.55957,0 -5.11816,-0.97607 -7.07129,-2.92871c-3.90527,-3.90527 -3.90527,-10.2373 0,-14.14258l38.7373,-38.7373c3.90625,-3.90527 10.23633,-3.90527 14.14258,0c3.90527,3.90527 3.90527,10.2373 0,14.14258l-38.7373,38.7373c-1.95312,1.95263 -4.51172,2.92871 -7.07129,2.92871z" fill="#f5f5f5"/>
  <path id="svg_15" d="m187.207995,118.105959c-2.55908,0 -5.11865,-0.97607 -7.07129,-2.92871l-38.7373,-38.7373c-3.90479,-3.90527 -3.90479,-10.2373 0,-14.14258c3.90527,-3.90527 10.2373,-3.90527 14.14258,0l38.7373,38.7373c3.90479,3.90527 3.90479,10.2373 0,14.14258c-1.95264,1.95263 -4.51221,2.92871 -7.07129,2.92871z" fill="#f5f5f5"/>
  <path id="svg_16" d="m403.029285,333.927249c-2.55957,0 -5.11816,-0.97607 -7.07129,-2.92871l-38.7373,-38.7373c-3.90527,-3.90527 -3.90527,-10.2373 0,-14.14258c3.90625,-3.90527 10.23633,-3.90527 14.14258,0l38.7373,38.7373c3.90527,3.90527 3.90527,10.2373 0,14.14258c-1.95313,1.95263 -4.51172,2.92871 -7.07129,2.92871z" fill="#f5f5f5"/>
  <path stroke="null" id="svg_17" d="m75.716785,426.647949c-38.47168,-0.25342 -69.7168,-31.6582 -69.7168,-70.00635c0,-33.32422 22.98682,-61.17969 54.27881,-68.2627c-0.50879,-2.79932 -0.76416,-5.65576 -0.76416,-8.55908c0,-26.25244 21.35791,-47.61035 47.61084,-47.61035c8.71973,0 17.07764,2.32715 24.36963,6.68799c19.98096,-26.42285 50.81201,-41.89746 84.46045,-41.89746c52.58838,0 96.91553,38.73828 104.78076,89.78418c36.39844,2.45215 65.26367,32.84766 65.26367,69.85742c0,38.22217 -31.0957,69.62451 -69.31836,70.00098l-240.96484,0.00537zm31.40869,-174.43848c-15.22461,0 -27.61084,12.38574 -27.61084,27.61035c0,4.34326 0.98584,8.50684 2.93018,12.37402c1.52686,3.03711 1.40625,6.64209 -0.32031,9.5708c-1.72656,2.92822 -4.82275,4.77881 -8.21973,4.91309c-26.8623,1.06055 -47.90479,23.00732 -47.90479,49.96387c0,27.39258 22.33252,49.82568 49.78271,50.00635l240.80029,-0.00488c27.2041,-0.26855 49.41699,-22.69922 49.41699,-50.00146c0,-27.57959 -22.4375,-50.01709 -50.0166,-50.01709c-1.02734,0 -2.14453,0.04443 -3.51465,0.13965c-2.64648,0.18115 -5.27441,-0.69629 -7.27734,-2.44922c-2.00293,-1.75244 -3.22559,-4.23047 -3.39551,-6.88672c-2.89355,-45.1001 -40.59863,-80.42822 -85.84033,-80.42822c-30.33984,0 -57.85889,15.50879 -73.61377,41.48584c-1.59473,2.62988 -4.31152,4.37939 -7.36572,4.74414c-3.05371,0.36035 -6.10596,-0.69678 -8.2749,-2.87793c-5.22217,-5.25099 -12.17431,-8.14259 -19.57568,-8.14259z" fill="#f5f5f5"/>
 </g>
</svg>