<svg width="469.99999999999994" height="440" xmlns="http://www.w3.org/2000/svg">

 <g>
  <title>background</title>
  <rect fill="none" id="canvas_background" height="442" width="472" y="-1" x="-1"/>
 </g>
 <g>
  <title>Layer 1</title>
  <path id="svg_30" d="m82.011691,399.901855c-38.47168,-0.25342 -69.7168,-31.6582 -69.7168,-70.00635c0,-33.32422 22.98633,-61.17969 54.2793,-68.26221c-0.50879,-2.7998 -0.76465,-5.65674 -0.76465,-8.55957c0,-26.25244 21.3584,-47.61035 47.61035,-47.61035c8.7207,0 17.07812,2.32666 24.37012,6.68799c19.98145,-26.42285 50.8125,-41.89746 84.45996,-41.89746c52.58789,0 96.91602,38.73828 104.78125,89.78418c36.39844,2.45215 65.26367,32.84766 65.26367,69.85742c0,38.22217 -31.0957,69.62451 -69.31836,70.00098l-240.96484,0.00537zm31.4082,-174.43848c-15.22461,0 -27.61035,12.38574 -27.61035,27.61035c0,4.34277 0.98633,8.50586 2.93066,12.37402c1.52637,3.03711 1.40625,6.64209 -0.32031,9.5708c-1.72656,2.92822 -4.82324,4.77881 -8.21973,4.91309c-26.8623,1.06055 -47.90527,23.00732 -47.90527,49.96387c0,27.39258 22.33203,49.82568 49.78223,50.00635l240.80078,-0.00488c27.2041,-0.26855 49.41699,-22.69922 49.41699,-50.00146c0,-27.57959 -22.4375,-50.01709 -50.0166,-50.01709c-1.02734,0 -2.14453,0.04443 -3.51465,0.13965c-2.64453,0.18262 -5.27441,-0.69678 -7.27734,-2.44922s-3.22559,-4.23047 -3.39551,-6.88672c-2.89355,-45.1001 -40.59961,-80.42822 -85.84082,-80.42822c-30.33887,0 -57.8584,15.50879 -73.61426,41.48633c-1.59473,2.62988 -4.31152,4.37939 -7.36523,4.74365c-3.05469,0.36279 -6.10547,-0.69678 -8.27539,-2.87793c-5.22168,-5.25099 -12.17383,-8.14259 -19.5752,-8.14259z" fill="#f5f5f5"/>
  <path id="svg_31" d="m381.285121,275.069335c-4.5332,0 -8.63867,-3.10352 -9.72461,-7.70752c-1.26758,-5.37549 2.0625,-10.76025 7.43848,-12.02783c18.33789,-4.32422 34.95508,-13.73633 48.08594,-27.03857c-22.94238,-5.4541 -43.84863,-17.59814 -60.15039,-35.18262c-20.62109,-22.24414 -31.97754,-51.2085 -31.97754,-81.55762c0,-18.6582 4.24902,-36.75342 12.40234,-53.19141c-23.00488,1.95312 -44.4707,11.72461 -61.18066,28.00537c-18.74219,18.25977 -29.46094,42.69678 -30.18262,68.80957c-0.15332,5.521 -4.73828,9.91064 -10.27246,9.71973c-5.52051,-0.15234 -9.87207,-4.75146 -9.71973,-10.27246c0.86621,-31.34277 13.72852,-60.6709 36.21777,-82.58203c22.53223,-21.95361 52.27051,-34.04395 83.73535,-34.04395c3.20605,0 6.49023,0.1333 9.75879,0.39648c3.57715,0.2876 6.72559,2.47021 8.25098,5.71875c1.52441,3.24854 1.19141,7.06494 -0.87207,10.00049c-11.86621,16.87744 -18.1377,36.73926 -18.1377,57.43945c0,25.29102 9.46289,49.42627 26.64453,67.96045c17.09082,18.43555 40.24609,29.69629 65.20215,31.70752c3.57617,0.28857 6.72461,2.47119 8.24902,5.71924c1.52441,3.24854 1.19141,7.06494 -0.87207,10c-16.96387,24.12744 -42.03418,41.12354 -70.5918,47.85742c-0.77147,0.18214 -1.54393,0.26954 -2.3037,0.26954z" fill="#f5f5f5"/>
 </g>
</svg>