<svg width="470" height="440.00000000000006" xmlns="http://www.w3.org/2000/svg">

 <g>
  <title>background</title>
  <rect fill="none" id="canvas_background" height="442" width="472" y="-1" x="-1"/>
 </g>
 <g>
  <title>Layer 1</title>
  <path id="svg_59" d="m114.716799,334.823972c-38.47168,-0.25342 -69.7168,-31.6582 -69.7168,-70.00635c0,-33.32422 22.98682,-61.17969 54.27881,-68.2627c-0.50879,-2.79932 -0.76416,-5.65576 -0.76416,-8.55908c0,-26.25244 21.35791,-47.61035 47.61084,-47.61035c8.71973,0 17.07764,2.32715 24.36963,6.68799c19.98096,-26.42285 50.81201,-41.89746 84.46045,-41.89746c52.58838,0 96.91553,38.73828 104.78027,89.78418c36.39844,2.45215 65.26416,32.84766 65.26416,69.85743c0,38.22217 -31.0957,69.62451 -69.31787,70.00098l-240.96533,0.00536zm31.40869,-174.43847c-15.22461,0 -27.61084,12.38574 -27.61084,27.61035c0,4.34326 0.98584,8.50684 2.93018,12.37402c1.52686,3.03711 1.40625,6.64209 -0.32031,9.5708c-1.72656,2.92822 -4.82275,4.77881 -8.21973,4.91309c-26.86231,1.06054 -47.90479,23.00732 -47.90479,49.96387c0,27.39258 22.33252,49.82568 49.78271,50.00635l240.80078,-0.00488c27.2041,-0.26855 49.4165,-22.69922 49.4165,-50.00146c0,-27.57959 -22.4375,-50.01709 -50.0166,-50.01709c-1.02783,0 -2.14502,0.04443 -3.51562,0.13965c-2.65332,0.18506 -5.27393,-0.69727 -7.27686,-2.44922c-2.00293,-1.75244 -3.2251,-4.23096 -3.39551,-6.88672c-2.89307,-45.1001 -40.59814,-80.42822 -85.83984,-80.42822c-30.33984,0 -57.85889,15.50879 -73.61377,41.48584c-1.59473,2.62988 -4.31152,4.37939 -7.36572,4.74414c-3.05273,0.36035 -6.10596,-0.69678 -8.2749,-2.87793c-5.22217,-5.25099 -12.17431,-8.14259 -19.57568,-8.14259z" fill="#f5f5f5"/>
 </g>
</svg>