<svg width="470.00000000000006" height="440" xmlns="http://www.w3.org/2000/svg">

 <g>
  <title>background</title>
  <rect fill="none" id="canvas_background" height="442" width="472" y="-1" x="-1"/>
 </g>
 <g>
  <title>Layer 1</title>
  <path id="svg_72" d="m358.621586,286.927498l-10.58398,-0.00391l0,0l-230.27881,-0.08691c-38.4419,0 -69.7168,-31.36133 -69.7168,-69.91064c0,-33.27637 22.98633,-61.09375 54.27881,-68.16797c-0.5083,-2.79883 -0.76416,-5.65527 -0.76416,-8.55762c0,-26.25293 21.35791,-47.61133 47.61084,-47.61133c8.7207,0 17.07764,2.32617 24.36914,6.68701c19.98242,-26.4248 50.81396,-41.90137 84.46094,-41.90137c52.58496,0 96.90967,38.72852 104.77832,89.76611c36.40186,2.44824 65.26611,32.83398 65.26611,69.8335c0,38.19629 -31.09619,69.57715 -69.31836,69.95215c-0.03369,0.00098 -0.06787,0.00098 -0.10205,0.00098zm-10.57617,-20.00391l10.53174,0.00391c27.27978,-0.29492 49.46484,-22.69336 49.46484,-49.95312c0,-27.56592 -22.4375,-49.99268 -50.0166,-49.99268c-1.17871,0 -2.43848,0.07666 -3.51562,0.15137c-2.65137,0.18652 -5.27344,-0.69678 -7.27686,-2.44922c-2.00293,-1.75244 -3.2251,-4.23096 -3.39551,-6.88672c-2.89258,-45.09668 -40.59814,-80.42236 -85.83984,-80.42236c-30.33838,0 -57.85742,15.51025 -73.61377,41.48926c-1.59473,2.62988 -4.31152,4.37939 -7.36572,4.74414c-3.05518,0.35986 -6.10596,-0.69678 -8.2749,-2.87793c-5.22119,-5.25 -12.17334,-8.14111 -19.57568,-8.14111c-15.22461,0 -27.61084,12.38623 -27.61084,27.61133c0,4.34375 0.98584,8.50684 2.93018,12.37402c1.52686,3.03711 1.40625,6.64209 -0.32031,9.5708c-1.72656,2.92822 -4.82275,4.77881 -8.21973,4.91309c-26.86232,1.06054 -47.9048,22.96532 -47.9048,49.86767c0,27.521 22.30273,49.91064 49.7168,49.91064l10.2832,0l220.00342,0.08691z" fill="#f5f5f5"/>
  <path id="svg_73" d="m203.000006,393.776128c-2.56104,0 -5.12158,-0.97754 -7.07471,-2.93262c-3.90332,-3.90723 -3.8999,-10.23926 0.00732,-14.1416l25.04199,-25.0166c3.90771,-3.90332 10.23926,-3.90039 14.14209,0.00684c3.90332,3.90723 3.8999,10.23926 -0.00732,14.1416l-25.04199,25.0166c-1.95215,1.9502 -4.51025,2.92578 -7.06738,2.92578z" fill="#f5f5f5"/>
  <path id="svg_74" d="m116.000006,336.776128c-2.56104,0 -5.12158,-0.97754 -7.07471,-2.93262c-3.90332,-3.90723 -3.8999,-10.23828 0.00732,-14.1416l15.79199,-15.77637c3.90723,-3.90332 10.23877,-3.90039 14.14209,0.00684s3.8999,10.23828 -0.00732,14.1416l-15.79199,15.77637c-1.95215,1.9502 -4.50977,2.92578 -7.06738,2.92578z" fill="#f5f5f5"/>
  <path id="svg_75" d="m255.000006,336.776128c-2.56104,0 -5.12158,-0.97754 -7.07471,-2.93262c-3.90332,-3.90723 -3.8999,-10.23828 0.00732,-14.1416l15.79199,-15.77637c3.90723,-3.90332 10.23877,-3.90039 14.14209,0.00684s3.8999,10.23828 -0.00732,14.1416l-15.79199,15.77637c-1.95215,1.9502 -4.50977,2.92578 -7.06738,2.92578z" fill="#f5f5f5"/>
  <path id="svg_76" d="m300.000006,361.939218c-2.56152,0 -5.12256,-0.97754 -7.07568,-2.93359c-3.90283,-3.90723 -3.89844,-10.23926 0.00928,-14.1416l40.99219,-40.93945c3.90771,-3.90332 10.23926,-3.89941 14.14209,0.00879c3.90283,3.90723 3.89844,10.23926 -0.00928,14.1416l-40.99219,40.93945c-1.95215,1.95019 -4.50928,2.9248 -7.06641,2.9248z" fill="#f5f5f5"/>
  <path id="svg_77" d="m149.000006,372.939218c-2.56104,0 -5.12158,-0.97754 -7.07471,-2.93262c-3.90332,-3.90723 -3.8999,-10.23828 0.00732,-14.1416l51.99219,-51.93945c3.90723,-3.90332 10.23877,-3.90039 14.14209,0.00684s3.8999,10.23828 -0.00732,14.1416l-51.99219,51.93945c-1.95215,1.95019 -4.51025,2.92578 -7.06738,2.92578z" fill="#f5f5f5"/>
 </g>
</svg>