<svg width="470" height="480" xmlns="http://www.w3.org/2000/svg">

 <g>
  <title>background</title>
  <rect fill="none" id="canvas_background" height="482" width="472" y="-1" x="-1"/>
 </g>
 <g>
  <title>Layer 1</title>
  <path id="svg_18" d="m327.502685,234.611925c-2.51562,0 -5.02637,-0.99268 -6.89453,-2.96191c-3.61035,-3.80664 -3.45215,-9.81934 0.35449,-13.43018c14.49023,-13.74561 22.4707,-32.31055 22.4707,-52.2749c0,-39.72217 -32.31641,-72.03809 -72.03809,-72.03809c-34.88867,0 -64.70117,24.87305 -70.88867,59.14258c-0.93262,5.16211 -5.87695,8.59131 -11.03613,7.66064c-5.16406,-0.93213 -8.59375,-5.87354 -7.66113,-11.03662c7.82129,-43.32275 45.49805,-74.7666 89.58594,-74.7666c50.19824,0 91.03809,40.83936 91.03809,91.03809c0,25.22949 -10.08398,48.68994 -28.39453,66.05908c-1.83692,1.74316 -4.18946,2.60791 -6.53614,2.60791z" fill="#f5f5f5"/>
  <path id="svg_19" d="m243.239005,66.939075c-4.37012,0 -8.30371,-3.03271 -9.27246,-7.47705l-10.01855,-45.91992c-1.11914,-5.12598 2.12988,-10.18799 7.25586,-11.30664c5.13574,-1.11963 10.18945,2.13135 11.30664,7.25684l10.01855,45.91992c1.11914,5.12598 -2.12988,10.18799 -7.25586,11.30664c-0.68261,0.14892 -1.36425,0.22021 -2.03418,0.22021z" fill="#f5f5f5"/>
  <path id="svg_20" d="m382.870845,155.716415c-4.37012,0 -8.30371,-3.03271 -9.27246,-7.47705c-1.11914,-5.12598 2.12988,-10.18799 7.25586,-11.30664l48.85059,-10.65771c5.13672,-1.11963 10.18945,2.13135 11.30664,7.25684c1.11914,5.12598 -2.12988,10.18799 -7.25586,11.30664l-48.85059,10.65771c-0.68262,0.14892 -1.36426,0.22021 -2.03418,0.22021z" fill="#f5f5f5"/>
  <path id="svg_21" d="m331.742915,82.968855c-1.75684,0 -3.53418,-0.48633 -5.12305,-1.50586c-4.41504,-2.83398 -5.69727,-8.71094 -2.86328,-13.12646l26.80859,-41.76904c2.83398,-4.41553 8.70996,-5.69727 13.12695,-2.86377c4.41504,2.83398 5.69727,8.71094 2.86328,13.12646l-26.80859,41.76904c-1.81445,2.82715 -4.87695,4.36963 -8.0039,4.36963z" fill="#f5f5f5"/>
  <path id="svg_22" d="m174.995845,117.166125c-1.75684,0 -3.53418,-0.48633 -5.12207,-1.50586l-41.76953,-26.80811c-4.41602,-2.83398 -5.69824,-8.71094 -2.86426,-13.12646s8.71094,-5.69727 13.12598,-2.86377l41.76953,26.80811c4.41602,2.83398 5.69824,8.71094 2.86426,13.12646c-1.81446,2.82715 -4.87696,4.36963 -8.00391,4.36963z" fill="#f5f5f5"/>
  <path id="svg_23" d="m406.732175,266.737895c-1.75684,0 -3.53418,-0.48633 -5.12305,-1.50586l-41.76855,-26.80811c-4.41504,-2.83398 -5.69727,-8.71094 -2.86328,-13.12646s8.70996,-5.69873 13.12695,-2.86377l41.76855,26.80811c4.41504,2.83398 5.69727,8.71094 2.86328,13.12646c-1.81445,2.82715 -4.87695,4.36963 -8.0039,4.36963z" fill="#f5f5f5"/>
  <path id="svg_24" d="m90.080805,374.671985c-35.09863,-0.23096 -63.60254,-28.88037 -63.60254,-63.86475c0,-30.25537 20.77051,-55.56934 49.10938,-62.17969c-0.41699,-2.4292 -0.62598,-4.90479 -0.62598,-7.41895c0,-24.02686 19.54688,-43.57422 43.57422,-43.57422c7.8457,0 15.37207,2.05859 21.96484,5.9209c18.19336,-23.85791 46.14258,-37.82031 76.63379,-37.82031c47.74414,0 88.00684,35.07959 95.30957,81.36914c33.04102,2.40674 59.1875,30.05859 59.1875,63.70312c0,34.86865 -28.36816,63.51611 -63.23633,63.85986l-218.31445,0.0049zm28.45508,-158.0376c-13.5498,0 -24.57422,11.02393 -24.57422,24.57422c0,3.86621 0.87695,7.57129 2.60742,11.01172c1.45117,2.88574 1.33691,6.31055 -0.30371,9.09277c-1.63965,2.78223 -4.58105,4.54053 -7.80859,4.66797c-24.10059,0.95166 -42.97852,20.6416 -42.97852,44.82617c0,24.57617 20.03711,44.70264 44.66504,44.86475l218.1582,-0.00439c24.40137,-0.24072 44.33008,-20.36523 44.33008,-44.86035c0,-24.74316 -20.13086,-44.87354 -44.87402,-44.87354c-0.92578,0 -1.92773,0.03955 -3.15527,0.12451c-2.53027,0.17969 -5.01074,-0.66309 -6.91211,-2.32715c-1.90332,-1.66455 -3.06348,-4.01904 -3.22559,-6.54199c-2.60645,-40.62842 -36.57324,-72.4541 -77.33008,-72.4541c-27.33105,0 -52.12305,13.97168 -66.31641,37.37402c-1.51562,2.49805 -4.0957,4.16016 -6.99707,4.50635c-2.90332,0.34473 -5.80176,-0.6626 -7.86133,-2.7334c-4.64843,-4.67383 -10.83691,-7.24756 -17.42382,-7.24756z" fill="#f5f5f5"/>
  <path id="svg_25" d="m173.422605,473.933215c-2.43262,0 -4.86523,-0.92871 -6.7207,-2.78564c-3.70801,-3.71191 -3.70508,-9.72705 0.00684,-13.43506l22.6875,-22.66455c3.71191,-3.70752 9.72656,-3.70508 13.43457,0.00635c3.70801,3.71191 3.70508,9.72705 -0.00684,13.43506l-22.6875,22.66455c-1.8545,1.85302 -4.28418,2.77929 -6.71387,2.77929z" fill="#f5f5f5"/>
  <path id="svg_26" d="m94.602295,422.292585c-2.43262,0 -4.86523,-0.92871 -6.7207,-2.78613c-3.70801,-3.71191 -3.70508,-9.72656 0.00684,-13.43506l14.30762,-14.29297c3.71094,-3.70703 9.72559,-3.70459 13.43457,0.00732c3.70801,3.71191 3.70508,9.72656 -0.00684,13.43506l-14.30762,14.29297c-1.8545,1.85254 -4.28419,2.77881 -6.71387,2.77881z" fill="#f5f5f5"/>
  <path id="svg_27" d="m220.533935,422.292585c-2.43262,0 -4.86523,-0.92822 -6.7207,-2.78564c-3.70801,-3.71191 -3.70508,-9.72705 0.00684,-13.43506l14.30664,-14.29297c3.71191,-3.70703 9.72656,-3.70557 13.43457,0.00635s3.70508,9.72705 -0.00684,13.43506l-14.30664,14.29297c-1.8545,1.85253 -4.28419,2.77929 -6.71387,2.77929z" fill="#f5f5f5"/>
  <path id="svg_28" d="m261.303465,445.089955c-2.43359,0 -4.86621,-0.9292 -6.72168,-2.78662c-3.70801,-3.7124 -3.7041,-9.72754 0.00879,-13.43506l37.1377,-37.09033c3.71191,-3.70801 9.72656,-3.70361 13.43457,0.0083c3.70801,3.7124 3.7041,9.72754 -0.00879,13.43506l-37.1377,37.09033c-1.85449,1.85253 -4.2832,2.77832 -6.71289,2.77832z" fill="#f5f5f5"/>
  <path id="svg_29" d="m124.499755,455.055775c-2.43262,0 -4.86523,-0.92871 -6.7207,-2.78564c-3.70801,-3.71191 -3.70508,-9.72705 0.00684,-13.43506l47.10352,-47.05615c3.71191,-3.70801 9.72656,-3.70459 13.43457,0.00635c3.70801,3.71191 3.70508,9.72705 -0.00684,13.43506l-47.10352,47.05615c-1.8545,1.85302 -4.28419,2.77929 -6.71387,2.77929z" fill="#f5f5f5"/>
 </g>
</svg>