<svg width="470" height="470" xmlns="http://www.w3.org/2000/svg">

 <g>
  <title>background</title>
  <rect fill="none" id="canvas_background" height="472" width="472" y="-1" x="-1"/>
 </g>
 <g>
  <title>Layer 1</title>
  <path id="svg_32" d="m99.507569,349.474361c-35.85156,-0.23633 -64.96582,-29.5 -64.96582,-65.2334c0,-30.79004 21.06152,-56.57031 49.84473,-63.43701c-0.39062,-2.38428 -0.58691,-4.81104 -0.58691,-7.27344c0,-24.60303 20.01562,-44.61865 44.61816,-44.61865c7.92969,0 15.53906,2.05273 22.22656,5.9082c18.55273,-24.17627 46.96289,-38.31689 77.94727,-38.31689c48.58398,0 89.57031,35.63037 97.13281,82.68945c33.61719,2.59277 60.17969,30.77686 60.17969,65.04834c0,35.61621 -28.97559,64.87695 -64.59082,65.22852l-221.80567,0.00488zm28.91016,-160.5625c-13.57422,0 -24.61816,11.04395 -24.61816,24.61865c0,3.87207 0.87891,7.58398 2.6123,11.03271c1.52734,3.03711 1.40625,6.64209 -0.32031,9.57031c-1.72656,2.92871 -4.82324,4.77881 -8.21973,4.91309c-24.29688,0.95947 -43.33008,20.81152 -43.33008,45.19434c0,24.77832 20.20117,45.06934 45.03223,45.2334l221.64062,-0.00488c24.59766,-0.24219 44.68945,-20.53223 44.68945,-45.22852c0,-24.94727 -20.2959,-45.24268 -45.24219,-45.24268c-0.92773,0 -1.93848,0.04004 -3.18066,0.12646c-2.66504,0.18555 -5.27441,-0.69775 -7.27637,-2.44971c-2.00293,-1.75195 -3.22461,-4.23047 -3.39551,-6.88623c-2.63672,-41.09473 -36.99414,-73.28564 -78.21777,-73.28564c-27.64551,0 -52.72168,14.13184 -67.0791,37.80322c-1.59473,2.62988 -4.31152,4.37939 -7.36523,4.74365c-3.05273,0.36182 -6.10547,-0.69678 -8.27539,-2.87793c-4.65528,-4.68211 -10.8545,-7.26024 -17.4541,-7.26024z" fill="#f5f5f5"/>
  <path id="svg_33" d="m381.686279,232.743411c-4.2666,0 -8.21777,-2.75098 -9.54785,-7.04004c-1.63672,-5.2749 1.31348,-10.87744 6.58789,-12.51367c13.81934,-4.28613 26.4834,-11.91748 36.81836,-22.03613c-20.71875,-5.21191 -39.58301,-16.33105 -54.3623,-32.27393c-19.11719,-20.62158 -29.64551,-47.47412 -29.64551,-75.61035c0,-16.81592 3.72266,-33.13721 10.87402,-48.03467c-19.75,1.99414 -38.28027,10.34668 -52.94824,24.01758c-16.85547,15.70996 -27.08203,36.96631 -28.79395,59.85352c-0.41113,5.50732 -5.22363,9.64648 -10.71777,9.22607c-5.50684,-0.41211 -9.6377,-5.21045 -9.22559,-10.71826c2.08789,-27.91895 14.55371,-53.84131 35.10059,-72.99219c20.6543,-19.25 47.58691,-29.85156 75.83594,-29.85156c2.97656,0 6.02051,0.12354 9.04785,0.36768c3.57617,0.28857 6.72461,2.47119 8.24902,5.71924c1.52441,3.24854 1.19141,7.06445 -0.87207,10c-10.82715,15.39941 -16.5498,33.52344 -16.5498,52.4126c0,23.07764 8.63477,45.10156 24.3125,62.01367c15.59473,16.82227 36.72461,27.09717 59.49609,28.93262c3.57617,0.28857 6.72461,2.47119 8.24902,5.71924c1.52441,3.24854 1.19141,7.06494 -0.87207,10c-14.11621,20.07764 -34.73926,35.12061 -58.07031,42.35742c-0.98633,0.30565 -1.98535,0.45116 -2.96582,0.45116z" fill="#f5f5f5"/>
  <path id="svg_34" d="m189.704829,452.986081c-2.56152,0 -5.12207,-0.97754 -7.07422,-2.93262c-3.90332,-3.90723 -3.90039,-10.23926 0.00684,-14.1416l23.0498,-23.02637c3.90723,-3.90332 10.24023,-3.90039 14.1416,0.00684c3.90332,3.90723 3.90039,10.23926 -0.00684,14.1416l-23.0498,23.02637c-1.95214,1.9502 -4.50976,2.92578 -7.06738,2.92578z" fill="#f5f5f5"/>
  <path id="svg_35" d="m109.624759,400.520261c-2.56152,0 -5.12207,-0.97754 -7.0752,-2.93262c-3.90234,-3.90723 -3.89941,-10.23926 0.00781,-14.14258l14.53613,-14.52051c3.90723,-3.90332 10.23926,-3.89941 14.14258,0.00781c3.90234,3.90723 3.89941,10.23926 -0.00781,14.14258l-14.53613,14.52051c-1.95215,1.9502 -4.50977,2.92481 -7.06738,2.92481z" fill="#f5f5f5"/>
  <path id="svg_36" d="m237.568119,400.520261c-2.56152,0 -5.12109,-0.97754 -7.07422,-2.93262c-3.90332,-3.90723 -3.90039,-10.23828 0.00684,-14.1416l14.53516,-14.52051c3.90723,-3.90332 10.23828,-3.90039 14.1416,0.00684s3.90039,10.23828 -0.00684,14.1416l-14.53516,14.52051c-1.95215,1.9502 -4.50977,2.92578 -7.06738,2.92578z" fill="#f5f5f5"/>
  <path id="svg_37" d="m278.988039,423.682371c-2.56152,0 -5.12305,-0.97754 -7.0752,-2.93359c-3.90332,-3.90723 -3.89941,-10.23926 0.00879,-14.1416l37.73145,-37.68262c3.9082,-3.9043 10.24121,-3.89941 14.1416,0.00879c3.90332,3.90723 3.89941,10.23926 -0.00879,14.1416l-37.73145,37.68262c-1.95214,1.95019 -4.50976,2.9248 -7.0664,2.9248z" fill="#f5f5f5"/>
  <path id="svg_38" d="m139.999759,433.807371c-2.56152,0 -5.12207,-0.97754 -7.07422,-2.93262c-3.90332,-3.90723 -3.90039,-10.23926 0.00684,-14.1416l47.85645,-47.80762c3.90723,-3.90332 10.24023,-3.90039 14.1416,0.00684c3.90332,3.90723 3.90039,10.23926 -0.00684,14.1416l-47.85645,47.80762c-1.95215,1.9502 -4.50977,2.92578 -7.06738,2.92578z" fill="#f5f5f5"/>
 </g>
</svg>