<svg width="470" height="440" xmlns="http://www.w3.org/2000/svg">

 <g>
  <title>background</title>
  <rect fill="none" id="canvas_background" height="442" width="472" y="-1" x="-1"/>
 </g>
 <g>
  <title>Layer 1</title>
  <path id="svg_78" d="m355.64258,256.09082l-10.58398,-0.00391l0,0l-230.27832,-0.08691c-38.44189,0 -69.7168,-31.36133 -69.7168,-69.91064c0,-33.27637 22.98633,-61.09375 54.27881,-68.16797c-0.5083,-2.79883 -0.76416,-5.65527 -0.76416,-8.55762c0,-26.25293 21.35791,-47.61133 47.61084,-47.61133c8.7207,0 17.07764,2.32617 24.36914,6.68701c19.98242,-26.4248 50.81396,-41.90137 84.46094,-41.90137c52.58447,0 96.90967,38.72852 104.77881,89.76611c36.40234,2.44824 65.26562,32.83398 65.26562,69.8335c0,38.19629 -31.09668,69.57715 -69.31836,69.95215c-0.03418,0.00098 -0.06836,0.00098 -0.10254,0.00098zm-10.57617,-20.00391l10.53125,0.00391c27.28027,-0.29492 49.46582,-22.69385 49.46582,-49.95312c0,-27.56592 -22.4375,-49.99268 -50.0166,-49.99268c-1.17871,0 -2.43848,0.07666 -3.51465,0.15137c-2.64258,0.18213 -5.27344,-0.69678 -7.27734,-2.44922c-2.00293,-1.75244 -3.22559,-4.23096 -3.39551,-6.88672c-2.89355,-45.09668 -40.59863,-80.42236 -85.84033,-80.42236c-30.33838,0 -57.85742,15.51025 -73.61377,41.48926c-1.59473,2.62988 -4.31152,4.37939 -7.36572,4.74414c-3.05225,0.3623 -6.10596,-0.69678 -8.2749,-2.87793c-5.22119,-5.25 -12.17334,-8.14111 -19.57568,-8.14111c-15.22461,0 -27.61084,12.38623 -27.61084,27.61133c0,4.34375 0.98584,8.50684 2.93018,12.37402c1.52686,3.03711 1.40625,6.64209 -0.32031,9.5708c-1.72656,2.92822 -4.82275,4.77881 -8.21973,4.91309c-26.8623,1.06055 -47.90479,22.96533 -47.90479,49.86768c0,27.521 22.30273,49.91064 49.7168,49.91064l10.28319,0l220.00293,0.0869z" fill="#f5f5f5"/>
  <path id="svg_79" d="m139.06592,391.05371c-2.56104,0 -5.12158,-0.97754 -7.07471,-2.93262c-3.90332,-3.90723 -3.8999,-10.23828 0.00732,-14.1416l61.90332,-61.84082c3.90723,-3.90234 10.23877,-3.90039 14.14209,0.00684s3.8999,10.23828 -0.00732,14.1416l-61.90332,61.84082c-1.95214,1.95019 -4.50976,2.92578 -7.06738,2.92578z" fill="#f5f5f5"/>
  <path id="svg_80" d="m200.93799,391.08496c-2.56104,0 -5.12158,-0.97754 -7.07471,-2.93262l-61.84082,-61.90332c-3.90332,-3.90723 -3.8999,-10.23828 0.00732,-14.1416c3.90771,-3.90234 10.23926,-3.90039 14.14209,0.00684l61.84082,61.90332c3.90332,3.90723 3.8999,10.23828 -0.00732,14.1416c-1.95214,1.9502 -4.50976,2.92578 -7.06738,2.92578z" fill="#f5f5f5"/>
  <path id="svg_81" d="m220.01758,360c-0.00195,0 -0.00293,0 -0.00488,0l-100,0.0293c-5.52295,-0.00293 -9.99805,-4.49707 -9.99512,-10.01953c0.00293,-5.52148 4.47949,-10.00977 10,-10.00977c0.00146,0 0.00342,0 0.00488,0l100,0.104c5.52295,0.00293 9.99805,4.43042 9.99512,9.95288c-0.00293,5.52051 -4.47998,9.94312 -10,9.94312z" fill="#f5f5f5"/>
  <path id="svg_82" d="m169.99219,410c-0.00195,0 -0.00293,0 -0.00488,0c-5.52295,0 -9.99805,-4.41602 -9.99512,-9.93848l0.05078,-100.0332c0.00293,-5.52148 4.47998,-10.02832 10,-10.02832c0.00195,0 0.00293,0 0.00488,0c5.52295,0 9.99805,4.54883 9.99512,10.07129l-0.05078,99.9668c-0.00293,5.52148 -4.47998,9.96191 -10,9.96191z" fill="#f5f5f5"/>
  <path id="svg_83" d="m277.77442,346.73438c-3.44531,0 -6.79688,-1.78125 -8.65332,-4.97363c-2.77734,-4.77344 -1.15918,-10.89453 3.61523,-13.67188l60.50586,-35.19922c4.77441,-2.78125 10.89551,-1.15918 13.67188,3.61523c2.77734,4.77344 1.15918,10.89453 -3.61523,13.67188l-60.50586,35.19922c-1.58204,0.9209 -3.31153,1.3584 -5.01856,1.3584z" fill="#f5f5f5"/>
  <path id="svg_84" d="m338.77051,345.83008c-1.61133,0 -3.24512,-0.39062 -4.76172,-1.21289l-61.52344,-33.39062c-4.85352,-2.63477 -6.65332,-8.70508 -4.01855,-13.55957c2.63379,-4.85352 8.70312,-6.65234 13.55957,-4.01855l61.52344,33.39062c4.85352,2.63477 6.65332,8.70508 4.01855,13.55957c-1.81152,3.33788 -5.24902,5.23144 -8.79785,5.23144z" fill="#f5f5f5"/>
  <path id="svg_85" d="m308,364c-0.00195,0 -0.00293,0 -0.00488,0c-5.52344,0 -9.99805,-4.70996 -9.99512,-10.23242l0.03516,-68.79785c0.00293,-5.52148 4.47949,-9.96973 10,-9.96973c0.00195,0 0.00293,0 0.00488,0c5.52344,0 9.99805,4.34326 9.99512,9.86572l-0.03516,68.9812c-0.00293,5.52149 -4.47949,10.15308 -10,10.15308z" fill="#f5f5f5"/>
 </g>
</svg>