<svg width="470" height="440" xmlns="http://www.w3.org/2000/svg">

 <g>
  <title>background</title>
  <rect fill="none" id="canvas_background" height="442" width="472" y="-1" x="-1"/>
 </g>
 <g>
  <title>Layer 1</title>
  <path id="svg_66" d="m355.245613,300.090805l-10.58398,-0.00391l0,0l-230.27881,-0.08691c-38.4419,0 -69.7168,-31.36133 -69.7168,-69.91016c0,-33.27637 22.98633,-61.09375 54.27881,-68.16797c-0.50879,-2.79883 -0.76416,-5.65625 -0.76416,-8.55859c0,-26.25293 21.35791,-47.61035 47.61084,-47.61035c8.72021,0 17.07812,2.32617 24.36914,6.68652c19.98242,-26.4248 50.81396,-41.90137 84.46094,-41.90137c52.58496,0 96.90967,38.72852 104.77832,89.7666c36.40186,2.44824 65.26611,32.83398 65.26611,69.83301c0,38.19629 -31.09619,69.57715 -69.31836,69.95215c-0.03369,0.00098 -0.06787,0.00098 -0.10205,0.00098zm-10.57617,-20.00391l10.53174,0.00391c27.27978,-0.29492 49.46484,-22.69336 49.46484,-49.95312c0,-27.56543 -22.4375,-49.99219 -50.0166,-49.99219c-1.18506,0 -2.44189,0.07617 -3.51562,0.15039c-2.65137,0.19336 -5.27344,-0.69629 -7.27686,-2.44922c-2.00293,-1.75195 -3.2251,-4.23047 -3.39551,-6.88574c-2.89258,-45.09668 -40.59814,-80.42285 -85.83984,-80.42285c-30.33838,0 -57.85742,15.50977 -73.61377,41.48926c-1.59473,2.62988 -4.31152,4.37988 -7.36572,4.74414c-3.05371,0.36035 -6.10645,-0.69727 -8.2749,-2.87793c-5.2207,-5.25 -12.17285,-8.14062 -19.57568,-8.14062c-15.22461,0 -27.61084,12.38574 -27.61084,27.61035c0,4.34473 0.98584,8.50781 2.92969,12.37402c1.52734,3.03711 1.40674,6.64258 -0.31982,9.57129c-1.72656,2.92773 -4.82275,4.7793 -8.21973,4.91309c-26.86232,1.06054 -47.9048,22.96581 -47.9048,49.86815c0,27.52051 22.30273,49.91016 49.7168,49.91016l10.2832,0l220.00342,0.08691z" fill="#f5f5f5"/>
  <path id="svg_67" d="m332.291023,384.999985c-0.00244,0 -0.00439,0 -0.00684,0l-56.375,-0.02393c-5.52246,-0.00391 -9.99658,-4.47144 -9.99316,-9.99487c0.00342,-5.52051 4.48047,-9.9812 10,-9.9812c0.00244,0 0.00439,0 0.00684,0l56.375,0.03174c5.52246,0.00391 9.99658,4.46753 9.99316,9.99097c-0.00342,5.5205 -4.48047,9.97729 -10,9.97729z" fill="#f5f5f5"/>
  <path id="svg_68" d="m236.916023,384.999985c-0.00146,0 -0.00244,0 -0.00391,0l-99.41602,-0.02393c-5.52246,-0.00195 -9.99805,-4.46851 -9.99609,-9.99194c0.00195,-5.52148 4.479,-9.98413 10,-9.98413c0.00146,0 0.00244,0 0.00391,0l99.41602,0.03174c5.52246,0.00195 9.99805,4.4646 9.99609,9.98804c-0.00195,5.52148 -4.479,9.98022 -10,9.98022z" fill="#f5f5f5"/>
  <path id="svg_69" d="m355.541023,342.999985c-0.00098,0 -0.00195,0 -0.00293,0l-129.54102,-0.02393c-5.52295,-0.00195 -9.99854,-4.46851 -9.99707,-9.99097c0.00146,-5.52148 4.47852,-9.98511 10,-9.98511c0.00098,0 0.00195,0 0.00293,0l129.54102,0.03174c5.52295,0.00195 9.99854,4.4646 9.99707,9.98706c-0.00146,5.52149 -4.47852,9.98121 -10,9.98121z" fill="#f5f5f5"/>
  <path id="svg_70" d="m188.541023,342.999985c-0.00195,0 -0.00293,0 -0.00537,0l-71.54102,-0.02393c-5.52246,-0.00293 -9.99756,-4.47046 -9.99463,-9.99292c0.00293,-5.52148 4.47998,-9.98315 10,-9.98315c0.00195,0 0.00293,0 0.00537,0l71.54102,0.03174c5.52246,0.00293 9.99756,4.46655 9.99463,9.98901c-0.00293,5.52149 -4.47998,9.97925 -10,9.97925z" fill="#f5f5f5"/>
 </g>
</svg>